<svg xmlns="http://www.w3.org/2000/svg" viewBox="0 0 1200 480" width="100%" height="100%">
  <defs>
    <!-- Background Gradients -->
    <linearGradient id="bg-grad" x1="0%" y1="0%" x2="100%" y2="100%">
      <stop offset="0%" stop-color="#080612" />
      <stop offset="40%" stop-color="#120c24" />
      <stop offset="80%" stop-color="#1c113b" />
      <stop offset="100%" stop-color="#0d091e" />
    </linearGradient>

    <linearGradient id="card-border" x1="0%" y1="0%" x2="100%" y2="0%">
      <stop offset="0%" stop-color="#a855f7" stop-opacity="0.8" />
      <stop offset="30%" stop-color="#ec4899" stop-opacity="0.9" />
      <stop offset="70%" stop-color="#3b82f6" stop-opacity="0.8" />
      <stop offset="100%" stop-color="#06b6d4" stop-opacity="0.9" />
    </linearGradient>

    <!-- Neon Glow Filters -->
    <filter id="glow-purple" x="-30%" y="-30%" width="160%" height="160%">
      <feGaussianBlur stdDeviation="6" result="blur" />
      <feComposite in="SourceGraphic" in2="blur" operator="over" />
    </filter>

    <filter id="glow-cyan" x="-30%" y="-30%" width="160%" height="160%">
      <feGaussianBlur stdDeviation="5" result="blur" />
      <feComposite in="SourceGraphic" in2="blur" operator="over" />
    </filter>

    <filter id="glow-pink" x="-30%" y="-30%" width="160%" height="160%">
      <feGaussianBlur stdDeviation="7" result="blur" />
      <feComposite in="SourceGraphic" in2="blur" operator="over" />
    </filter>

    <filter id="glow-gold" x="-30%" y="-30%" width="160%" height="160%">
      <feGaussianBlur stdDeviation="6" result="blur" />
      <feComposite in="SourceGraphic" in2="blur" operator="over" />
    </filter>

    <!-- Block Gradients -->
    <linearGradient id="block-python" x1="0%" y1="0%" x2="100%" y2="100%">
      <stop offset="0%" stop-color="#3b82f6" stop-opacity="0.3" />
      <stop offset="100%" stop-color="#1d4ed8" stop-opacity="0.6" />
    </linearGradient>

    <linearGradient id="block-react" x1="0%" y1="0%" x2="100%" y2="100%">
      <stop offset="0%" stop-color="#06b6d4" stop-opacity="0.3" />
      <stop offset="100%" stop-color="#0e7490" stop-opacity="0.6" />
    </linearGradient>

    <linearGradient id="block-ai" x1="0%" y1="0%" x2="100%" y2="100%">
      <stop offset="0%" stop-color="#a855f7" stop-opacity="0.35" />
      <stop offset="100%" stop-color="#6b21a8" stop-opacity="0.7" />
    </linearGradient>

    <linearGradient id="block-rag" x1="0%" y1="0%" x2="100%" y2="100%">
      <stop offset="0%" stop-color="#ec4899" stop-opacity="0.3" />
      <stop offset="100%" stop-color="#be185d" stop-opacity="0.65" />
    </linearGradient>

    <linearGradient id="block-fastapi" x1="0%" y1="0%" x2="100%" y2="100%">
      <stop offset="0%" stop-color="#10b981" stop-opacity="0.3" />
      <stop offset="100%" stop-color="#047857" stop-opacity="0.65" />
    </linearGradient>

    <linearGradient id="block-docker" x1="0%" y1="0%" x2="100%" y2="100%">
      <stop offset="0%" stop-color="#0284c7" stop-opacity="0.3" />
      <stop offset="100%" stop-color="#0369a1" stop-opacity="0.7" />
    </linearGradient>
  </defs>

  <style>
    /* CSS Animations for GitHub display */
    @keyframes redJump {
      0%, 100% { transform: translateY(0) scale(1, 1); }
      30% { transform: translateY(-38px) scale(0.95, 1.08); }
      50% { transform: translateY(-44px) rotate(-6deg) scale(0.98, 1.04); }
      75% { transform: translateY(-8px) scale(1.04, 0.96); }
      85% { transform: translateY(0) scale(1.12, 0.88); }
    }

    @keyframes chuckDash {
      0%, 100% { transform: translate(0, 0) rotate(0deg); }
      20% { transform: translate(-10px, 8px) rotate(-10deg) scale(1.05, 0.95); }
      40% { transform: translate(45px, -30px) rotate(15deg) scale(1.15, 0.85); }
      60% { transform: translate(65px, -15px) rotate(8deg); }
      80% { transform: translate(15px, 0px) rotate(-4deg); }
    }

    @keyframes stellaFloat {
      0%, 100% { transform: translateY(0) scale(1, 1) rotate(0deg); }
      25% { transform: translateY(-22px) scale(0.96, 1.05) rotate(4deg); }
      50% { transform: translateY(-35px) scale(1.02, 0.98) rotate(-3deg); }
      75% { transform: translateY(-15px) scale(0.98, 1.02) rotate(2deg); }
    }

    @keyframes slingshotVibe {
      0%, 100% { transform: scale(1); }
      45% { transform: scale(1.04, 0.97); }
      50% { transform: scale(0.98, 1.03); }
    }

    @keyframes pulseGlow {
      0%, 100% { opacity: 0.6; }
      50% { opacity: 1; }
    }

    @keyframes sparkFloat {
      0% { opacity: 0; transform: translateY(0) scale(0.5); }
      50% { opacity: 1; transform: translateY(-20px) scale(1.2); }
      100% { opacity: 0; transform: translateY(-40px) scale(0.3); }
    }

    @keyframes bubbleRise {
      0% { opacity: 0.3; transform: translate(0, 0) scale(0.8); }
      50% { opacity: 0.9; transform: translate(-10px, -25px) scale(1.1); }
      100% { opacity: 0; transform: translate(15px, -55px) scale(1.3); }
    }

    @keyframes trajectoryFlow {
      0% { stroke-dashoffset: 40; }
      100% { stroke-dashoffset: 0; }
    }

    .red-bird-group {
      animation: redJump 3.2s ease-in-out infinite;
      transform-origin: 320px 250px;
    }

    .chuck-bird-group {
      animation: chuckDash 3.6s cubic-bezier(0.4, 0, 0.2, 1) infinite;
      transform-origin: 660px 240px;
    }

    .stella-bird-group {
      animation: stellaFloat 4s ease-in-out infinite;
      transform-origin: 1010px 220px;
    }

    .slingshot-group {
      animation: slingshotVibe 4s ease-in-out infinite;
      transform-origin: 140px 310px;
    }

    .glow-pulse {
      animation: pulseGlow 2.5s ease-in-out infinite;
    }

    .spark-1 { animation: sparkFloat 2.2s ease-in infinite; }
    .spark-2 { animation: sparkFloat 2.8s ease-in infinite 0.7s; }
    .spark-3 { animation: sparkFloat 3.1s ease-in infinite 1.4s; }

    .bubble-1 { animation: bubbleRise 3s ease-out infinite; }
    .bubble-2 { animation: bubbleRise 3.5s ease-out infinite 1.2s; }
    .bubble-3 { animation: bubbleRise 4s ease-out infinite 2s; }

    .trajectory-path {
      stroke-dasharray: 8 8;
      animation: trajectoryFlow 1.5s linear infinite;
    }

    .banner-title {
      font-family: -apple-system, BlinkMacSystemFont, "Segoe UI", Roboto, "Helvetica Neue", Arial, sans-serif;
      font-weight: 900;
      letter-spacing: 2px;
    }

    .banner-subtitle {
      font-family: -apple-system, BlinkMacSystemFont, "Segoe UI", Roboto, "Helvetica Neue", Arial, sans-serif;
      font-weight: 600;
      letter-spacing: 1px;
    }

    .block-text {
      font-family: -apple-system, BlinkMacSystemFont, "Segoe UI", Roboto, "Helvetica Neue", Arial, sans-serif;
      font-weight: 800;
    }
  </style>

  <!-- Background Canvas -->
  <rect width="1200" height="480" rx="24" fill="url(#bg-grad)" />

  <!-- Cyber Grid Lines -->
  <g opacity="0.15" stroke="#a855f7" stroke-width="1">
    <line x1="0" y1="380" x2="1200" y2="380" />
    <line x1="0" y1="410" x2="1200" y2="410" />
    <line x1="0" y1="440" x2="1200" y2="440" />
    <line x1="100" y1="360" x2="50" y2="480" />
    <line x1="250" y1="360" x2="200" y2="480" />
    <line x1="400" y1="360" x2="380" y2="480" />
    <line x1="550" y1="360" x2="540" y2="480" />
    <line x1="700" y1="360" x2="710" y2="480" />
    <line x1="850" y1="360" x2="880" y2="480" />
    <line x1="1000" y1="360" x2="1050" y2="480" />
    <line x1="1150" y1="360" x2="1220" y2="480" />
  </g>

  <!-- Glowing Outer Neon Border -->
  <rect x="2" y="2" width="1196" height="476" rx="22" fill="none" stroke="url(#card-border)" stroke-width="2.5" />

  <!-- Top Ambient Glow Orbs -->
  <circle cx="200" cy="50" r="140" fill="#7c3aed" opacity="0.12" filter="url(#glow-purple)" />
  <circle cx="650" cy="60" r="160" fill="#ec4899" opacity="0.10" filter="url(#glow-pink)" />
  <circle cx="1050" cy="70" r="130" fill="#06b6d4" opacity="0.12" filter="url(#glow-cyan)" />

  <!-- HEADER BAR: Maria N. Branding -->
  <g transform="translate(600, 52)">
    <!-- Pill Badge -->
    <rect x="-180" y="-22" width="360" height="34" rx="17" fill="#201542" stroke="#a855f7" stroke-width="1.5" filter="url(#glow-purple)" opacity="0.9" />
    <text x="0" y="1" fill="#e9d5ff" font-size="12.5" font-family="-apple-system, sans-serif" font-weight="700" text-anchor="middle" letter-spacing="2">
      ✦ SENIOR FULL STACK DEVELOPER ✦
    </text>

    <!-- Main Title -->
    <text x="0" y="44" fill="#ffffff" font-size="34" text-anchor="middle" class="banner-title" filter="url(#glow-purple)">
      MARIA N.
    </text>

    <!-- Subtitle Stack -->
    <text x="0" y="72" fill="#c084fc" font-size="14" text-anchor="middle" class="banner-subtitle">
      Python • React • AI Agents &amp; RAG • Cloud-Native Architecture
    </text>
  </g>

  <!-- SLINGSHOT LAUNCHER (Left) -->
  <g class="slingshot-group">
    <!-- Base Platform -->
    <ellipse cx="140" cy="385" rx="55" ry="14" fill="#1e1338" stroke="#7c3aed" stroke-width="2" />
    <ellipse cx="140" cy="385" rx="35" ry="8" fill="#3b1d6e" opacity="0.8" />

    <!-- Wooden/Cyber Slingshot Frame -->
    <path d="M 140 380 L 140 310 Q 140 280 115 240 M 140 310 Q 140 280 165 240" fill="none" stroke="#9333ea" stroke-width="12" stroke-linecap="round" stroke-linejoin="round" />
    <path d="M 140 380 L 140 310 Q 140 280 115 240 M 140 310 Q 140 280 165 240" fill="none" stroke="#d8b4fe" stroke-width="4" stroke-linecap="round" stroke-linejoin="round" />

    <!-- Glowing Prongs -->
    <circle cx="115" cy="238" r="8" fill="#ec4899" filter="url(#glow-pink)" />
    <circle cx="165" cy="238" r="8" fill="#06b6d4" filter="url(#glow-cyan)" />

    <!-- Rubber Bands -->
    <line x1="115" y1="238" x2="135" y2="265" stroke="#f43f5e" stroke-width="5" stroke-linecap="round" />
    <line x1="165" y1="238" x2="145" y2="265" stroke="#f43f5e" stroke-width="5" stroke-linecap="round" />
    <rect x="132" y="258" width="16" height="15" rx="3" fill="#881337" stroke="#fb7185" stroke-width="1.5" />

    <!-- Trajectory Dot Arc -->
    <path d="M 140 265 Q 240 120 420 180 T 780 230" fill="none" stroke="#ec4899" stroke-width="3" stroke-linecap="round" class="trajectory-path" opacity="0.75" filter="url(#glow-pink)" />
  </g>

  <!-- TECH BLOCKS (STACK / TARGETS) -->

  <!-- Block 1: React (Front Left) -->
  <g transform="translate(230, 290)">
    <!-- 3D Glass Box -->
    <polygon points="10,25 65,0 120,25 65,50" fill="url(#block-react)" stroke="#06b6d4" stroke-width="2" />
    <polygon points="10,25 65,50 65,115 10,90" fill="#083344" stroke="#06b6d4" stroke-width="2" opacity="0.9" />
    <polygon points="65,50 120,25 120,90 65,115" fill="#0e7490" stroke="#06b6d4" stroke-width="2" opacity="0.9" />
    <!-- React Atom Icon Simplified -->
    <ellipse cx="65" cy="78" rx="22" ry="9" fill="none" stroke="#67e8f9" stroke-width="1.8" transform="rotate(-30 65 78)" />
    <ellipse cx="65" cy="78" rx="22" ry="9" fill="none" stroke="#67e8f9" stroke-width="1.8" transform="rotate(30 65 78)" />
    <circle cx="65" cy="78" r="4" fill="#a5f3fc" />
    <text x="65" y="105" fill="#e0f2fe" font-size="12" text-anchor="middle" class="block-text">React.js</text>
  </g>

  <!-- Block 2: Python (Middle Ground Left) -->
  <g transform="translate(340, 240)">
    <polygon points="12,28 72,0 132,28 72,56" fill="url(#block-python)" stroke="#3b82f6" stroke-width="2" />
    <polygon points="12,28 72,56 72,130 12,102" fill="#1e3a8a" stroke="#3b82f6" stroke-width="2" opacity="0.9" />
    <polygon points="72,56 132,28 132,102 72,130" fill="#1d4ed8" stroke="#3b82f6" stroke-width="2" opacity="0.9" />
    <!-- Python Snake Dual Color Icon -->
    <path d="M 62 80 C 62 70 70 70 76 70 C 82 70 82 76 82 76 L 82 82 L 72 82" fill="none" stroke="#60a5fa" stroke-width="3" stroke-linecap="round" />
    <path d="M 82 88 C 82 98 74 98 68 98 C 62 98 62 92 62 92 L 62 86 L 72 86" fill="none" stroke="#fbbf24" stroke-width="3" stroke-linecap="round" />
    <circle cx="67" cy="74" r="1.5" fill="#ffffff" />
    <circle cx="77" cy="94" r="1.5" fill="#ffffff" />
    <text x="72" y="118" fill="#dbeafe" font-size="13" text-anchor="middle" class="block-text">Python</text>
  </g>

  <!-- Block 3: FastAPI (Lower Mid) -->
  <g transform="translate(460, 310)">
    <polygon points="10,22 55,0 100,22 55,44" fill="url(#block-fastapi)" stroke="#10b981" stroke-width="2" />
    <polygon points="10,22 55,44 55,96 10,74" fill="#064e3b" stroke="#10b981" stroke-width="2" opacity="0.9" />
    <polygon points="55,44 100,22 100,74 55,96" fill="#047857" stroke="#10b981" stroke-width="2" opacity="0.9" />
    <!-- Lightning Bolt -->
    <polygon points="58,54 48,70 55,70 51,85 64,68 57,68" fill="#34d399" />
    <text x="55" y="88" fill="#d1fae5" font-size="11" text-anchor="middle" class="block-text">FastAPI</text>
  </g>

  <!-- Block 4: AI Agents (Tall Centerpiece) -->
  <g transform="translate(560, 210)">
    <polygon points="15,32 80,0 145,32 80,64" fill="url(#block-ai)" stroke="#a855f7" stroke-width="2.5" />
    <polygon points="15,32 80,64 80,150 15,118" fill="#4c1d95" stroke="#a855f7" stroke-width="2.5" opacity="0.92" />
    <polygon points="80,64 145,32 145,118 80,150" fill="#6b21a8" stroke="#a855f7" stroke-width="2.5" opacity="0.92" />
    <!-- Brain / Robot Symbol -->
    <circle cx="80" cy="98" r="16" fill="#2e1065" stroke="#c084fc" stroke-width="2" />
    <circle cx="74" cy="95" r="3" fill="#a855f7" />
    <circle cx="86" cy="95" r="3" fill="#a855f7" />
    <path d="M 72 105 Q 80 110 88 105" fill="none" stroke="#c084fc" stroke-width="2" stroke-linecap="round" />
    <!-- Antenna -->
    <line x1="80" y1="82" x2="80" y2="74" stroke="#c084fc" stroke-width="2" />
    <circle cx="80" cy="72" r="3.5" fill="#f43f5e" filter="url(#glow-pink)" />
    <text x="80" y="136" fill="#f3e8ff" font-size="14" text-anchor="middle" class="block-text">AI AGENTS</text>
  </g>

  <!-- Block 5: RAG & Vectors (Right Center) -->
  <g transform="translate(720, 250)">
    <polygon points="12,26 65,0 118,26 65,52" fill="url(#block-rag)" stroke="#ec4899" stroke-width="2" />
    <polygon points="12,26 65,52 65,120 12,94" fill="#831843" stroke="#ec4899" stroke-width="2" opacity="0.9" />
    <polygon points="65,52 118,26 118,94 65,120" fill="#9d174d" stroke="#ec4899" stroke-width="2" opacity="0.9" />
    <!-- Knowledge Retrieval Layers -->
    <line x1="45" y1="75" x2="85" y2="75" stroke="#f472b6" stroke-width="3" stroke-linecap="round" />
    <line x1="40" y1="83" x2="90" y2="83" stroke="#fbcfe8" stroke-width="3" stroke-linecap="round" />
    <line x1="45" y1="91" x2="85" y2="91" stroke="#f472b6" stroke-width="3" stroke-linecap="round" />
    <text x="65" y="110" fill="#fdf2f8" font-size="12" text-anchor="middle" class="block-text">RAG / LLM</text>
  </g>

  <!-- Block 6: Docker / Cloud (Far Right) -->
  <g transform="translate(855, 290)">
    <polygon points="12,25 60,0 108,25 60,50" fill="url(#block-docker)" stroke="#0284c7" stroke-width="2" />
    <polygon points="12,25 60,50 60,110 12,85" fill="#075985" stroke="#0284c7" stroke-width="2" opacity="0.9" />
    <polygon points="60,50 108,25 108,85 60,110" fill="#0369a1" stroke="#0284c7" stroke-width="2" opacity="0.9" />
    <!-- Mini Containers on Whale -->
    <rect x="42" y="68" width="10" height="8" rx="1.5" fill="#38bdf8" />
    <rect x="55" y="68" width="10" height="8" rx="1.5" fill="#38bdf8" />
    <rect x="68" y="68" width="10" height="8" rx="1.5" fill="#38bdf8" />
    <rect x="48" y="57" width="10" height="8" rx="1.5" fill="#7dd3fc" />
    <rect x="61" y="57" width="10" height="8" rx="1.5" fill="#7dd3fc" />
    <text x="60" y="100" fill="#e0f2fe" font-size="12" text-anchor="middle" class="block-text">Docker / AWS</text>
  </g>

  <!-- CHARACTERS: ANGRY BIRDS JUMPING & HIT ANIMATIONS -->

  <!-- CHARACTER 1: RED BIRD (JUMPING OVER PYTHON & REACT) -->
  <g class="red-bird-group">
    <!-- Motion Shadow -->
    <ellipse cx="320" cy="270" rx="30" ry="10" fill="#07040e" opacity="0.6" />

    <!-- Red Bird Body -->
    <circle cx="320" cy="210" r="38" fill="#e11d48" stroke="#9f1239" stroke-width="3" />
    <!-- Highlight Shading -->
    <ellipse cx="310" cy="192" rx="20" ry="12" fill="#fb7185" opacity="0.4" />
    <!-- Cream Peach Belly -->
    <ellipse cx="320" cy="226" rx="22" ry="16" fill="#fed7aa" />

    <!-- Crest Feathers -->
    <path d="M 314 174 C 310 152 288 158 296 176" fill="#e11d48" stroke="#9f1239" stroke-width="2.5" />
    <path d="M 324 173 C 326 148 344 154 336 176" fill="#e11d48" stroke="#9f1239" stroke-width="2.5" />

    <!-- Bushy Fierce Black Eyebrows -->
    <polygon points="296,192 318,198 318,206 296,198" fill="#0f172a" />
    <polygon points="344,192 322,198 322,206 344,198" fill="#0f172a" />

    <!-- Big Determined Eyes -->
    <circle cx="308" cy="207" r="10" fill="#ffffff" stroke="#0f172a" stroke-width="1.8" />
    <circle cx="332" cy="207" r="10" fill="#ffffff" stroke="#0f172a" stroke-width="1.8" />
    <circle cx="312" cy="207" r="4.5" fill="#0f172a" />
    <circle cx="328" cy="207" r="4.5" fill="#0f172a" />
    <circle cx="314" cy="205" r="1.5" fill="#ffffff" />
    <circle cx="330" cy="205" r="1.5" fill="#ffffff" />

    <!-- Cheerful Open Beak -->
    <polygon points="320,208 304,222 336,222" fill="#f59e0b" stroke="#b45309" stroke-width="2" />
    <polygon points="307,222 333,222 320,232" fill="#d97706" stroke="#b45309" stroke-width="1.8" />
    <!-- Inside Mouth & Tongue -->
    <ellipse cx="320" cy="223" rx="7" ry="3" fill="#991b1b" />

    <!-- Tail Feathers -->
    <path d="M 282 214 L 268 208 L 274 218 L 266 224 L 282 222 Z" fill="#0f172a" />
  </g>

  <!-- CHARACTER 2: CHUCK (SPEEDY YELLOW BIRD DASHING ON AI AGENTS) -->
  <g class="chuck-bird-group">
    <!-- Motion Speed Lines / Turbo Trails -->
    <path d="M 570 200 L 615 210" stroke="#facc15" stroke-width="3" stroke-linecap="round" opacity="0.8" />
    <path d="M 560 220 L 620 226" stroke="#fef08a" stroke-width="4" stroke-linecap="round" opacity="0.9" />
    <path d="M 580 240 L 625 242" stroke="#f59e0b" stroke-width="3" stroke-linecap="round" opacity="0.7" />

    <!-- Chuck's Triangular Body -->
    <polygon points="685,160 635,250 725,245" fill="#eab308" stroke="#ca8a04" stroke-width="3" stroke-linejoin="round" />
    <polygon points="682,170 648,242 716,238" fill="#facc15" />
    <!-- White Belly -->
    <polygon points="655,246 705,243 680,225" fill="#fef9c3" />

    <!-- Black Spiky Hair Feathers -->
    <path d="M 685 160 Q 675 130 655 136 Q 678 144 682 156" fill="#0f172a" />
    <path d="M 685 160 Q 692 128 710 135 Q 695 145 688 156" fill="#0f172a" />

    <!-- Slanted Focused Eyebrows -->
    <line x1="656" y1="195" x2="680" y2="204" stroke="#713f12" stroke-width="5" stroke-linecap="round" />
    <line x1="708" y1="195" x2="684" y2="204" stroke="#713f12" stroke-width="5" stroke-linecap="round" />

    <!-- Expressive Eyes -->
    <circle cx="669" cy="208" r="8" fill="#ffffff" stroke="#0f172a" stroke-width="1.8" />
    <circle cx="695" cy="208" r="8" fill="#ffffff" stroke="#0f172a" stroke-width="1.8" />
    <circle cx="673" cy="208" r="3.8" fill="#0f172a" />
    <circle cx="691" cy="208" r="3.8" fill="#0f172a" />
    <circle cx="674" cy="206" r="1.2" fill="#ffffff" />
    <circle cx="692" cy="206" r="1.2" fill="#ffffff" />

    <!-- Long Sharp Yellow-Orange Beak -->
    <polygon points="682,208 645,225 715,225" fill="#f97316" stroke="#c2410c" stroke-width="2" />
    <polygon points="655,225 705,225 682,238" fill="#ea580c" />

    <!-- Red Headband / Tech Visor for Chuck -->
    <path d="M 652 188 Q 682 196 712 188" stroke="#ef4444" stroke-width="5" fill="none" opacity="0.9" />
  </g>

  <!-- CHARACTER 3: STELLA (PRETTY PINK BIRD FLOATING & JUMPING) -->
  <g class="stella-bird-group">
    <!-- Floating Anti-Gravity Bubbles -->
    <circle cx="950" cy="180" r="14" fill="#ec4899" fill-opacity="0.25" stroke="#f472b6" stroke-width="1.8" class="bubble-1" filter="url(#glow-pink)" />
    <circle cx="975" cy="140" r="9" fill="#a855f7" fill-opacity="0.3" stroke="#c084fc" stroke-width="1.5" class="bubble-2" filter="url(#glow-purple)" />
    <circle cx="1070" cy="160" r="18" fill="#06b6d4" fill-opacity="0.2" stroke="#67e8f9" stroke-width="2" class="bubble-3" filter="url(#glow-cyan)" />

    <!-- Stella's Pretty Pink Body -->
    <circle cx="1010" cy="220" r="34" fill="#f43f5e" stroke="#be123c" stroke-width="2.5" />
    <ellipse cx="1010" cy="220" rx="32" ry="32" fill="#fb7185" />
    <!-- Light Pink/White Chest -->
    <ellipse cx="1010" cy="235" rx="20" ry="14" fill="#ffe4e6" />

    <!-- Pretty Crest Feathers with Cyan Tips -->
    <path d="M 1004 188 C 998 160 970 162 982 182" fill="#f43f5e" stroke="#be123c" stroke-width="2" />
    <circle cx="974" cy="164" r="4" fill="#06b6d4" filter="url(#glow-cyan)" />
    <path d="M 1014 187 C 1018 155 1040 160 1030 182" fill="#f43f5e" stroke="#be123c" stroke-width="2" />
    <circle cx="1038" cy="162" r="4" fill="#06b6d4" filter="url(#glow-cyan)" />

    <!-- Pretty Long Eyelashes & Big Blue Eyes -->
    <!-- Lashes -->
    <line x1="992" y1="202" x2="984" y2="197" stroke="#881337" stroke-width="2" stroke-linecap="round" />
    <line x1="995" y1="198" x2="992" y2="190" stroke="#881337" stroke-width="2" stroke-linecap="round" />
    <line x1="1028" y1="202" x2="1036" y2="197" stroke="#881337" stroke-width="2" stroke-linecap="round" />
    <line x1="1025" y1="198" x2="1028" y2="190" stroke="#881337" stroke-width="2" stroke-linecap="round" />

    <!-- Big Kawaii Eyes -->
    <circle cx="998" cy="214" r="10.5" fill="#ffffff" stroke="#881337" stroke-width="1.5" />
    <circle cx="1022" cy="214" r="10.5" fill="#ffffff" stroke="#881337" stroke-width="1.5" />
    <!-- Sky Blue Iris -->
    <circle cx="1000" cy="214" r="6.5" fill="#0284c7" />
    <circle cx="1020" cy="214" r="6.5" fill="#0284c7" />
    <!-- Pupil & Sparkles -->
    <circle cx="1000" cy="214" r="4" fill="#0f172a" />
    <circle cx="1020" cy="214" r="4" fill="#0f172a" />
    <circle cx="998" cy="211" r="2.2" fill="#ffffff" />
    <circle cx="1018" cy="211" r="2.2" fill="#ffffff" />
    <circle cx="1002" cy="216" r="1" fill="#ffffff" />
    <circle cx="1022" cy="216" r="1" fill="#ffffff" />

    <!-- Rosy Cheeks -->
    <circle cx="986" cy="226" r="6" fill="#f43f5e" opacity="0.5" />
    <circle cx="1034" cy="226" r="6" fill="#f43f5e" opacity="0.5" />

    <!-- Cute Small Orange Beak -->
    <polygon points="1010,217 999,228 1021,228" fill="#fbbf24" stroke="#d97706" stroke-width="1.5" />
    <polygon points="1001,228 1019,228 1010,235" fill="#f59e0b" stroke="#d97706" stroke-width="1.2" />

    <!-- Heart Particle floating near Stella -->
    <path d="M 1055 185 C 1055 180 1048 178 1045 183 C 1042 178 1035 180 1035 185 C 1035 192 1045 198 1045 198 C 1045 198 1055 192 1055 185 Z" fill="#ec4899" filter="url(#glow-pink)" opacity="0.85" />
  </g>

  <!-- SPARKS & CODE GLOW PARTICLES -->
  <g fill="#facc15" opacity="0.8">
    <circle cx="430" cy="230" r="3" class="spark-1" filter="url(#glow-gold)" />
    <circle cx="620" cy="260" r="2.5" class="spark-2" filter="url(#glow-gold)" />
    <circle cx="700" cy="200" r="3.5" class="spark-3" filter="url(#glow-gold)" />
    <circle cx="820" cy="240" r="2" class="spark-1" filter="url(#glow-cyan)" />
    <circle cx="210" cy="260" r="2.5" class="spark-2" filter="url(#glow-purple)" />
  </g>

  <!-- BOTTOM STATUS & STATS BAR -->
  <g transform="translate(600, 442)">
    <rect x="-420" y="-18" width="840" height="34" rx="12" fill="#130d2a" stroke="#7c3aed" stroke-width="1.2" opacity="0.95" />
    
    <text x="-320" y="4" fill="#a78bfa" font-size="12" font-family="-apple-system, sans-serif" font-weight="600">
      ⚡ 5+ Yrs Exp
    </text>
    <circle cx="-230" cy="0" r="3" fill="#4c1d95" />

    <text x="-160" y="4" fill="#38bdf8" font-size="12" font-family="-apple-system, sans-serif" font-weight="600">
      🚀 15+ Production Apps
    </text>
    <circle cx="-50" cy="0" r="3" fill="#4c1d95" />

    <text x="35" y="4" fill="#34d399" font-size="12" font-family="-apple-system, sans-serif" font-weight="600">
      🧠 500+ AI RAG Docs
    </text>
    <circle cx="130" cy="0" r="3" fill="#4c1d95" />

    <text x="230" y="4" fill="#f472b6" font-size="12" font-family="-apple-system, sans-serif" font-weight="600">
      🛡️ 99.5% SLA Uptime
    </text>

    <text x="360" y="4" fill="#fbbf24" font-size="12" font-family="-apple-system, sans-serif" font-weight="700">
      🎮 PLAYABLE GAME ▾
    </text>
  </g>
</svg>
